<mxfile host="app.diagrams.net" modified="2023-11-02T08:10:29.301Z" agent="Mozilla/5.0 (Macintosh; Intel Mac OS X 10_15_7) AppleWebKit/537.36 (KHTML, like Gecko) Chrome/118.0.0.0 Safari/537.36" etag="T2PjjUZoZKviR5b-aGNh" version="22.0.8" type="github">
  <diagram name="Page-1" id="5Cmb2VEozTUwDFxyfx4w">
    <mxGraphModel dx="2311" dy="919" grid="1" gridSize="10" guides="1" tooltips="1" connect="1" arrows="1" fold="1" page="1" pageScale="1" pageWidth="850" pageHeight="1100" math="0" shadow="0">
      <root>
        <mxCell id="0" />
        <mxCell id="1" parent="0" />
        <mxCell id="JKZDzRx39nTJUE7i6mWh-27" style="edgeStyle=orthogonalEdgeStyle;rounded=0;orthogonalLoop=1;jettySize=auto;html=1;exitX=0;exitY=0.5;exitDx=0;exitDy=0;entryX=0.5;entryY=0;entryDx=0;entryDy=0;" edge="1" parent="1" source="JKZDzRx39nTJUE7i6mWh-1" target="JKZDzRx39nTJUE7i6mWh-12">
          <mxGeometry relative="1" as="geometry" />
        </mxCell>
        <mxCell id="JKZDzRx39nTJUE7i6mWh-28" value="ТРЕБУЕМОЕ ПОВЕДЕНИЕ" style="edgeLabel;html=1;align=center;verticalAlign=middle;resizable=0;points=[];" vertex="1" connectable="0" parent="JKZDzRx39nTJUE7i6mWh-27">
          <mxGeometry x="0.6996" y="1" relative="1" as="geometry">
            <mxPoint as="offset" />
          </mxGeometry>
        </mxCell>
        <mxCell id="JKZDzRx39nTJUE7i6mWh-1" value="Есть приложение СБОЛ?" style="rhombus;whiteSpace=wrap;html=1;" vertex="1" parent="1">
          <mxGeometry x="530" y="350" width="100" height="100" as="geometry" />
        </mxCell>
        <mxCell id="JKZDzRx39nTJUE7i6mWh-2" value="" style="endArrow=classic;html=1;rounded=0;exitX=0;exitY=0.5;exitDx=0;exitDy=0;entryX=0.5;entryY=0;entryDx=0;entryDy=0;" edge="1" parent="1" source="JKZDzRx39nTJUE7i6mWh-1" target="JKZDzRx39nTJUE7i6mWh-9">
          <mxGeometry width="50" height="50" relative="1" as="geometry">
            <mxPoint x="400" y="670" as="sourcePoint" />
            <mxPoint x="320" y="560" as="targetPoint" />
            <Array as="points">
              <mxPoint x="380" y="400" />
            </Array>
          </mxGeometry>
        </mxCell>
        <mxCell id="JKZDzRx39nTJUE7i6mWh-3" value="Да" style="edgeLabel;html=1;align=center;verticalAlign=middle;resizable=0;points=[];" vertex="1" connectable="0" parent="JKZDzRx39nTJUE7i6mWh-2">
          <mxGeometry x="-0.425" relative="1" as="geometry">
            <mxPoint as="offset" />
          </mxGeometry>
        </mxCell>
        <mxCell id="JKZDzRx39nTJUE7i6mWh-25" value="ТЕКУЩЕЕ ПОВЕДЕНИЕ" style="edgeLabel;html=1;align=center;verticalAlign=middle;resizable=0;points=[];" vertex="1" connectable="0" parent="JKZDzRx39nTJUE7i6mWh-2">
          <mxGeometry x="0.4751" relative="1" as="geometry">
            <mxPoint as="offset" />
          </mxGeometry>
        </mxCell>
        <mxCell id="JKZDzRx39nTJUE7i6mWh-4" value="" style="endArrow=classic;html=1;rounded=0;exitX=1;exitY=0.5;exitDx=0;exitDy=0;entryX=0.5;entryY=0;entryDx=0;entryDy=0;" edge="1" parent="1" source="JKZDzRx39nTJUE7i6mWh-1" target="JKZDzRx39nTJUE7i6mWh-6">
          <mxGeometry width="50" height="50" relative="1" as="geometry">
            <mxPoint x="410" y="410" as="sourcePoint" />
            <mxPoint x="600" y="560" as="targetPoint" />
            <Array as="points">
              <mxPoint x="780" y="400" />
            </Array>
          </mxGeometry>
        </mxCell>
        <mxCell id="JKZDzRx39nTJUE7i6mWh-5" value="Нет" style="edgeLabel;html=1;align=center;verticalAlign=middle;resizable=0;points=[];" vertex="1" connectable="0" parent="JKZDzRx39nTJUE7i6mWh-4">
          <mxGeometry x="-0.425" relative="1" as="geometry">
            <mxPoint as="offset" />
          </mxGeometry>
        </mxCell>
        <mxCell id="JKZDzRx39nTJUE7i6mWh-26" value="ТЕКУЩЕЕ ПОВЕДЕНИЕ" style="edgeLabel;html=1;align=center;verticalAlign=middle;resizable=0;points=[];" vertex="1" connectable="0" parent="JKZDzRx39nTJUE7i6mWh-4">
          <mxGeometry x="0.4903" y="3" relative="1" as="geometry">
            <mxPoint as="offset" />
          </mxGeometry>
        </mxCell>
        <mxCell id="JKZDzRx39nTJUE7i6mWh-23" style="edgeStyle=orthogonalEdgeStyle;rounded=0;orthogonalLoop=1;jettySize=auto;html=1;exitX=0.5;exitY=1;exitDx=0;exitDy=0;entryX=0.5;entryY=0;entryDx=0;entryDy=0;" edge="1" parent="1" source="JKZDzRx39nTJUE7i6mWh-6" target="JKZDzRx39nTJUE7i6mWh-7">
          <mxGeometry relative="1" as="geometry" />
        </mxCell>
        <mxCell id="JKZDzRx39nTJUE7i6mWh-6" value="&lt;font style=&quot;font-size: 11px;&quot;&gt;Вызов ручки&lt;br&gt;&lt;/font&gt;&lt;div style=&quot;color: rgb(8, 8, 8); font-family: Menlo, monospace; font-size: 11px;&quot;&gt;&lt;pre style=&quot;&quot;&gt;&lt;font style=&quot;font-size: 11px;&quot;&gt;/cas/rest/oauth/sberId/v1/redirect&lt;/font&gt;&lt;/pre&gt;&lt;pre style=&quot;&quot;&gt;&lt;font style=&quot;font-size: 11px;&quot;&gt;QUERY&lt;/font&gt;&lt;/pre&gt;&lt;pre style=&quot;&quot;&gt;&lt;div style=&quot;font-family: Menlo, monospace;&quot;&gt;&lt;pre style=&quot;&quot;&gt;&lt;font style=&quot;font-size: 11px;&quot;&gt;redirectUri=domclick://sberbankid&lt;/font&gt;&lt;/pre&gt;&lt;/div&gt;&lt;/pre&gt;&lt;/div&gt;" style="rounded=0;whiteSpace=wrap;html=1;fillColor=#d5e8d4;strokeColor=#82b366;labelBackgroundColor=none;labelBorderColor=none;" vertex="1" parent="1">
          <mxGeometry x="600" y="560" width="360" height="120" as="geometry" />
        </mxCell>
        <mxCell id="JKZDzRx39nTJUE7i6mWh-22" style="edgeStyle=orthogonalEdgeStyle;rounded=0;orthogonalLoop=1;jettySize=auto;html=1;exitX=0.5;exitY=1;exitDx=0;exitDy=0;entryX=0.5;entryY=0;entryDx=0;entryDy=0;" edge="1" parent="1" source="JKZDzRx39nTJUE7i6mWh-7" target="JKZDzRx39nTJUE7i6mWh-8">
          <mxGeometry relative="1" as="geometry" />
        </mxCell>
        <mxCell id="JKZDzRx39nTJUE7i6mWh-7" value="Из хедера location достаем url&lt;br&gt;&lt;span style=&quot;font-size: 11px;&quot;&gt;Из куки sbolSessionId достаем sessionId&amp;nbsp;&lt;br&gt;&lt;/span&gt;" style="rounded=0;whiteSpace=wrap;html=1;fillColor=#d5e8d4;strokeColor=#82b366;" vertex="1" parent="1">
          <mxGeometry x="600" y="720" width="360" height="120" as="geometry" />
        </mxCell>
        <mxCell id="JKZDzRx39nTJUE7i6mWh-21" style="edgeStyle=orthogonalEdgeStyle;rounded=0;orthogonalLoop=1;jettySize=auto;html=1;exitX=0.5;exitY=1;exitDx=0;exitDy=0;" edge="1" parent="1" source="JKZDzRx39nTJUE7i6mWh-8">
          <mxGeometry relative="1" as="geometry">
            <mxPoint x="580" y="1040" as="targetPoint" />
          </mxGeometry>
        </mxCell>
        <mxCell id="JKZDzRx39nTJUE7i6mWh-8" value="Открываем браузер с URL из хедера LOCATION&lt;span style=&quot;font-size: 11px;&quot;&gt;&amp;nbsp;&lt;br&gt;&lt;/span&gt;" style="rounded=0;whiteSpace=wrap;html=1;fillColor=#d5e8d4;strokeColor=#82b366;" vertex="1" parent="1">
          <mxGeometry x="600" y="880" width="360" height="120" as="geometry" />
        </mxCell>
        <mxCell id="JKZDzRx39nTJUE7i6mWh-18" style="edgeStyle=orthogonalEdgeStyle;rounded=0;orthogonalLoop=1;jettySize=auto;html=1;exitX=0.5;exitY=1;exitDx=0;exitDy=0;entryX=0.5;entryY=0;entryDx=0;entryDy=0;" edge="1" parent="1" source="JKZDzRx39nTJUE7i6mWh-9" target="JKZDzRx39nTJUE7i6mWh-10">
          <mxGeometry relative="1" as="geometry" />
        </mxCell>
        <mxCell id="JKZDzRx39nTJUE7i6mWh-9" value="&lt;font style=&quot;font-size: 12px;&quot;&gt;Вызываем руку&lt;br&gt;&lt;/font&gt;&lt;div style=&quot;color: rgb(8, 8, 8); font-family: Menlo, monospace;&quot;&gt;&lt;pre style=&quot;&quot;&gt;&lt;font style=&quot;font-size: 12px;&quot;&gt;/cas/rest/oauth/sberId/v1/redirect/parameters&lt;/font&gt;&lt;/pre&gt;&lt;/div&gt;" style="rounded=0;whiteSpace=wrap;html=1;fillColor=#f8cecc;strokeColor=#b85450;labelBackgroundColor=none;" vertex="1" parent="1">
          <mxGeometry x="200" y="560" width="360" height="120" as="geometry" />
        </mxCell>
        <mxCell id="JKZDzRx39nTJUE7i6mWh-19" style="edgeStyle=orthogonalEdgeStyle;rounded=0;orthogonalLoop=1;jettySize=auto;html=1;exitX=0.5;exitY=1;exitDx=0;exitDy=0;entryX=0.5;entryY=0;entryDx=0;entryDy=0;" edge="1" parent="1" source="JKZDzRx39nTJUE7i6mWh-10" target="JKZDzRx39nTJUE7i6mWh-11">
          <mxGeometry relative="1" as="geometry" />
        </mxCell>
        <mxCell id="JKZDzRx39nTJUE7i6mWh-10" value="Наполняем диплинк параметрами из JSON ответа ручки" style="rounded=0;whiteSpace=wrap;html=1;fillColor=#f8cecc;strokeColor=#b85450;" vertex="1" parent="1">
          <mxGeometry x="200" y="720" width="360" height="120" as="geometry" />
        </mxCell>
        <mxCell id="JKZDzRx39nTJUE7i6mWh-20" style="edgeStyle=orthogonalEdgeStyle;rounded=0;orthogonalLoop=1;jettySize=auto;html=1;exitX=0.5;exitY=1;exitDx=0;exitDy=0;entryX=0.5;entryY=0;entryDx=0;entryDy=0;" edge="1" parent="1" source="JKZDzRx39nTJUE7i6mWh-11" target="JKZDzRx39nTJUE7i6mWh-16">
          <mxGeometry relative="1" as="geometry" />
        </mxCell>
        <mxCell id="JKZDzRx39nTJUE7i6mWh-11" value="Вызываем СБОЛ АПП" style="rounded=0;whiteSpace=wrap;html=1;fillColor=#d5e8d4;strokeColor=#82b366;" vertex="1" parent="1">
          <mxGeometry x="200" y="880" width="360" height="120" as="geometry" />
        </mxCell>
        <mxCell id="JKZDzRx39nTJUE7i6mWh-29" style="edgeStyle=orthogonalEdgeStyle;rounded=0;orthogonalLoop=1;jettySize=auto;html=1;exitX=0.5;exitY=1;exitDx=0;exitDy=0;entryX=0.5;entryY=0;entryDx=0;entryDy=0;" edge="1" parent="1" source="JKZDzRx39nTJUE7i6mWh-12" target="JKZDzRx39nTJUE7i6mWh-13">
          <mxGeometry relative="1" as="geometry" />
        </mxCell>
        <mxCell id="JKZDzRx39nTJUE7i6mWh-12" value="&lt;font style=&quot;font-size: 12px;&quot;&gt;Вызываем руку&lt;br&gt;&lt;/font&gt;&lt;div style=&quot;color: rgb(8, 8, 8); font-family: Menlo, monospace;&quot;&gt;&lt;pre style=&quot;&quot;&gt;&lt;font style=&quot;font-size: 12px;&quot;&gt;/cas/rest/oauth/sberId/v1/redirect&lt;/font&gt;&lt;/pre&gt;&lt;/div&gt;" style="rounded=0;whiteSpace=wrap;html=1;fillColor=#d5e8d4;strokeColor=#82b366;labelBackgroundColor=none;" vertex="1" parent="1">
          <mxGeometry x="-200" y="560" width="360" height="120" as="geometry" />
        </mxCell>
        <mxCell id="JKZDzRx39nTJUE7i6mWh-13" value="Наполняем диплинк параметрами, которые пришли в хедере LOCATION" style="rounded=0;whiteSpace=wrap;html=1;fillColor=#d5e8d4;strokeColor=#82b366;" vertex="1" parent="1">
          <mxGeometry x="-200" y="720" width="360" height="120" as="geometry" />
        </mxCell>
        <mxCell id="JKZDzRx39nTJUE7i6mWh-24" style="edgeStyle=orthogonalEdgeStyle;rounded=0;orthogonalLoop=1;jettySize=auto;html=1;exitX=0.5;exitY=1;exitDx=0;exitDy=0;entryX=0.5;entryY=0;entryDx=0;entryDy=0;" edge="1" parent="1" source="JKZDzRx39nTJUE7i6mWh-16" target="JKZDzRx39nTJUE7i6mWh-17">
          <mxGeometry relative="1" as="geometry" />
        </mxCell>
        <mxCell id="JKZDzRx39nTJUE7i6mWh-16" value="Уходим из приложения на авторизацию в СБОЛ АПП / СБОЛ ВЕБ" style="rounded=0;whiteSpace=wrap;html=1;fillColor=#d5e8d4;strokeColor=#82b366;" vertex="1" parent="1">
          <mxGeometry x="400" y="1040" width="360" height="120" as="geometry" />
        </mxCell>
        <mxCell id="JKZDzRx39nTJUE7i6mWh-17" value="&lt;font style=&quot;font-size: 11px;&quot;&gt;Возвращаемся в ДК АПП&lt;br&gt;вызываем ручку&lt;br&gt;&lt;/font&gt;&lt;div style=&quot;color: rgb(8, 8, 8); font-family: Menlo, monospace; font-size: 11px;&quot;&gt;&lt;pre style=&quot;&quot;&gt;&lt;font style=&quot;font-size: 11px;&quot;&gt;/cas/rest/oauth/sberId/v1/cb&lt;br&gt;&lt;br&gt;с параметрами полученными от СБОЛ АПП / СБОЛ ВЕБ&lt;/font&gt;&lt;/pre&gt;&lt;/div&gt;" style="rounded=0;whiteSpace=wrap;html=1;fillColor=#d5e8d4;strokeColor=#82b366;labelBackgroundColor=none;" vertex="1" parent="1">
          <mxGeometry x="400" y="1200" width="360" height="120" as="geometry" />
        </mxCell>
      </root>
    </mxGraphModel>
  </diagram>
</mxfile>
